# xmcd
#
# Track frame offsets:
# 150
# 21558
# 39293
# 56110
# 73119
# 86127
# 104372
# 120305
# 136365
# 150451
# 170400
# 189237
# 206586
# 224915
# 241833
#
# Disc length: 3449 seconds
#
#
# Revision: 1
# Processed by: cddbd v1.4PL0 Copyright (c) Steve Scherf et al.
# Submitted via: FreeRIP 2.52 
#
DISCID=d70d770f
DTITLE=Bruno and Marrone - Inevitável
DYEAR=2003
DGENRE=Country
TTITLE0=Será
TTITLE1=Vai Dar Namoro
TTITLE2=Deixa
TTITLE3=É Você Que Eu Amo
TTITLE4=Pra Lá Que Eu Vou
TTITLE5=Sonhos Perdidos
TTITLE6=Trânsito Parado
TTITLE7=Doce Desejo
TTITLE8=Apaziguar
TTITLE9=Se Não Tivesse Ido
TTITLE10=Você Não Me Ensinou A Te Esquecer
TTITLE11=Inevitável
TTITLE12=Coração de Pedra
TTITLE13=Foi Engano
TTITLE14=Ligação Urbana (Ao Vivo)
EXTD=YEAR: 2003 ID3G: 2
EXTT0=
EXTT1=
EXTT2=
EXTT3=
EXTT4=
EXTT5=
EXTT6=
EXTT7=
EXTT8=
EXTT9=
EXTT10=
EXTT11=
EXTT12=
EXTT13=
EXTT14=
PLAYORDER=
